# xmcd
#
# Track frame offsets: 
#        150
#        13287
#        25447
#        43949
#        62890
#        82048
#
# Disc length: 1275 seconds
#
# Revision: 0
# Processed by: cddbd v1.5.2PL0 Copyright (c) Steve Scherf et al.
# Submitted via: ExactAudioCopyFreeDBPlugin 1.0
#
DISCID=5204f906
DTITLE=Mulligan, Dave - Runaway Blues
DYEAR=2012
DGENRE=
TTITLE0=Runaway Blues
TTITLE1=Santa Fe Runaway
TTITLE2=Dear Brother
TTITLE3=Justine
TTITLE4=The Thought Of You
TTITLE5=Sierra Nevada Song
EXTD=
EXTT0=
EXTT1=
EXTT2=
EXTT3=
EXTT4=
EXTT5=
PLAYORDER=
